<svg xmlns="http://www.w3.org/2000/svg" viewBox="0 0 720 380" role="img" aria-label="Gia phả họ Phạm Văn">
<defs>
 <linearGradient id="gold" x1="0" y1="0" x2="1" y2="1"><stop stop-color="#fff4be"/><stop offset=".23" stop-color="#f2d27a"/><stop offset=".58" stop-color="#d29b2d"/><stop offset="1" stop-color="#86500f"/></linearGradient>
 <linearGradient id="gold2" x1="0" y1="0" x2="0" y2="1"><stop stop-color="#ffe6a0"/><stop offset="1" stop-color="#ae7015"/></linearGradient>
 <linearGradient id="red" x1="0" y1="0" x2="0" y2="1"><stop stop-color="#b82125"/><stop offset=".52" stop-color="#7f0c12"/><stop offset="1" stop-color="#4b0307"/></linearGradient>
 <filter id="shadow" x="-30%" y="-30%" width="160%" height="180%"><feDropShadow dx="0" dy="9" stdDeviation="7" flood-color="#4c1607" flood-opacity=".28"/></filter>
</defs>
<g filter="url(#shadow)">
 <!-- vertical scrolls -->
 <g stroke="#693608" stroke-width="7" stroke-linejoin="round">
  <path d="M78 74c-26 22-35 48-26 76l13 31-18 22 15 34-20 24 31 50 42-12-24-43 16-21-16-38 15-23-16-31c-11-21-8-42 10-62z" fill="url(#gold)"/>
  <path d="M642 74c26 22 35 48 26 76l-13 31 18 22-15 34 20 24-31 50-42-12 24-43-16-21 16-38-15-23 16-31c11-21 8-42-10-62z" fill="url(#gold)"/>
  <path d="M56 91q26 14 48 0M50 124q28 13 51-1M55 158q27 13 49 0M664 91q-26 14-48 0M670 124q-28 13-51-1M665 158q-27 13-49 0" fill="none" stroke="#9a5b12" stroke-width="4"/>
 </g>
 <!-- book body -->
 <path d="M111 110c46-38 97-55 153-52 39 2 71 13 96 32 26-19 58-30 97-32 56-3 107 14 152 52v118c-40-26-84-38-132-36-46 2-85 15-117 39-32-24-71-37-117-39-48-2-92 10-132 36z" fill="url(#gold)" stroke="#6b3508" stroke-width="9"/>
 <path d="M132 121c35-25 72-36 114-34 36 2 68 12 97 31v82c-28-15-60-22-95-23-40-1-78 8-116 26z" fill="#fff0c7" stroke="#ad6d18" stroke-width="5"/>
 <path d="M588 121c-35-25-72-36-114-34-36 2-68 12-97 31v82c28-15 60-22 95-23 40-1 78 8 116 26z" fill="#fff0c7" stroke="#ad6d18" stroke-width="5"/>
 <path d="M360 90v139" stroke="#8d5613" stroke-width="5"/>
 <!-- family tree symbols in book -->
 <g fill="#8b1118" stroke="#8b1118" stroke-linecap="round"><circle cx="177" cy="131" r="6"/><circle cx="223" cy="117" r="6"/><circle cx="269" cy="135" r="6"/><circle cx="310" cy="116" r="6"/><circle cx="410" cy="116" r="6"/><circle cx="451" cy="135" r="6"/><circle cx="497" cy="117" r="6"/><circle cx="543" cy="131" r="6"/><path d="M177 131c21 14 42 27 62 34M223 117c12 20 24 35 41 49M269 135c11 12 23 21 38 28M543 131c-21 14-42 27-62 34M497 117c-12 20-24 35-41 49M451 135c-11 12-23 21-38 28" fill="none" stroke-width="4"/></g>
 <!-- crown / lineage ornament -->
 <path d="M277 70l18-20 18 20 20-28 27 29 27-29 20 28 18-20 18 20" fill="none" stroke="url(#gold2)" stroke-width="7" stroke-linecap="round" stroke-linejoin="round"/>
 <!-- lower scroll banner -->
 <path d="M72 235c58 10 116 12 170 8 46-3 85-10 118-21 33 11 72 18 118 21 54 4 112 2 170-8l-35 91c-75 15-147 19-217 11-13-1-25-3-36-5-11 2-23 4-36 5-70 8-142 4-217-11z" fill="url(#red)" stroke="url(#gold)" stroke-width="10"/>
 <path d="M110 258c63 6 118 4 164-7 31-7 60-15 86-24 26 9 55 17 86 24 46 11 101 13 164 7" fill="none" stroke="#f3cf70" stroke-opacity=".56" stroke-width="3"/>
 <text x="360" y="305" text-anchor="middle" font-family="Georgia,'Times New Roman',serif" font-size="60" font-weight="700" letter-spacing="5" fill="url(#gold)">PHẠM VĂN</text>
 <!-- curled end caps -->
 <path d="M77 239c-23-3-39 5-48 24 19-5 34 1 43 18M643 239c23-3 39 5 48 24-19-5-34 1-43 18" fill="none" stroke="#d69d31" stroke-width="8" stroke-linecap="round"/>
</g>
</svg>