<svg xmlns="http://www.w3.org/2000/svg" viewBox="0 0 1200 1800" preserveAspectRatio="none">
<defs>
  <linearGradient id="paper" x1="0" y1="0" x2="0" y2="1">
    <stop stop-color="#fff8e8"/>
    <stop offset=".48" stop-color="#f7e8cd"/>
    <stop offset="1" stop-color="#efd7b2"/>
  </linearGradient>
  <radialGradient id="paperGlow" cx="50%" cy="28%" r="78%">
    <stop stop-color="#fffef9" stop-opacity=".50"/>
    <stop offset=".62" stop-color="#fff7e4" stop-opacity=".10"/>
    <stop offset="1" stop-color="#ad7532" stop-opacity=".035"/>
  </radialGradient>
  <pattern id="grain" width="26" height="26" patternUnits="userSpaceOnUse">
    <circle cx="4" cy="6" r=".55" fill="#97652a" opacity=".028"/>
    <circle cx="19" cy="18" r=".45" fill="#b17a38" opacity=".025"/>
    <path d="M2 22l7-.8M14 3l5-.7" stroke="#8f6028" stroke-width=".35" opacity=".024"/>
  </pattern>
  <g id="lacBird" fill="none" stroke="#aa742d" stroke-width="2" stroke-linecap="round" stroke-linejoin="round">
    <path d="M-38 4c15-15 30-21 46-17 12 3 23 12 33 26-15-5-28-5-38-1 12 5 24 14 35 26-18-8-34-11-48-7-10 3-20 10-28 20 5-15 11-27 20-36-7-2-14-5-20-11z"/>
    <path d="M-6 3c7-10 13-18 18-25M2 10c12-5 24-6 36-3M0 18c13 1 25 5 36 12M-31 10l-17 7 13 3-12 9 17-4"/>
  </g>
  <g id="person" fill="none" stroke="#a56e2a" stroke-width="1.8" stroke-linecap="round">
    <circle cx="0" cy="-17" r="4"/><path d="M0-13v23M0-6l-11 8M0-6l11 8M0 10l-8 16M0 10l8 16"/>
  </g>
  <g id="deer" fill="none" stroke="#a56e2a" stroke-width="1.8" stroke-linecap="round" stroke-linejoin="round">
    <path d="M-23 5H3l12-8 9 2-6 6 8 3-11 4-8 9M-17 5l-4 17M-3 5l-2 17M6 6l8 16"/>
    <path d="M15-2l2-10m2 10 5-8m-7 8-5-8"/>
  </g>
  <g id="boat" fill="none" stroke="#a56e2a" stroke-width="1.8" stroke-linecap="round" stroke-linejoin="round">
    <path d="M-48 9c25 12 57 12 96 0-12 16-28 24-48 24S-36 25-48 9z"/>
    <path d="M-34 9l9-15 10 15M-8 9 0-10 8 9M18 9l9-15 10 15"/>
  </g>
</defs>
<rect width="1200" height="1800" fill="url(#paper)"/>
<rect width="1200" height="1800" fill="url(#grain)"/>
<rect width="1200" height="1800" fill="url(#paperGlow)"/>
<!-- Main Dong Son drum medallion -->
<g transform="translate(600 1035)" fill="none" stroke="#a46e29">
  <circle r="535" stroke-width="2.2" opacity=".20"/>
  <circle r="512" stroke-width="1.2" opacity=".17"/>
  <circle r="486" stroke-width="9" stroke-dasharray="1 13" opacity=".12"/>
  <circle r="458" stroke-width="1.4" opacity=".18"/>
  <circle r="430" stroke-width="18" stroke-dasharray="18 10" opacity=".075"/>
  <circle r="398" stroke-width="1.5" opacity=".18"/>
  <circle r="368" stroke-width="11" stroke-dasharray="2 12" opacity=".10"/>
  <circle r="340" stroke-width="1.3" opacity=".19"/>
  <circle r="303" stroke-width="1.2" stroke-dasharray="5 9" opacity=".16"/>
  <circle r="270" stroke-width="1.4" opacity=".18"/>
  <circle r="226" stroke-width="1.1" stroke-dasharray="3 8" opacity=".15"/>
  <circle r="185" stroke-width="1.4" opacity=".17"/>
</g>
<g transform="translate(600 1035)" fill="none" stroke="#a06a27" opacity=".15">
  <circle r="500" stroke-width="24" stroke-dasharray="3 18"/>
  <circle r="443" stroke-width="14" stroke-dasharray="10 9" opacity=".62"/>
  <circle r="385" stroke-width="20" stroke-dasharray="2 16" opacity=".72"/>
  <circle r="320" stroke-width="13" stroke-dasharray="13 9" opacity=".62"/>
  <circle r="252" stroke-width="17" stroke-dasharray="2 13" opacity=".70"/>
</g>
<!-- circular scenes: birds -->
<g opacity=".17">
  <use href="#lacBird" transform="translate(600 574) scale(.74) rotate(0)"/><use href="#lacBird" transform="translate(795 619) scale(.74) rotate(28)"/><use href="#lacBird" transform="translate(952 752) scale(.74) rotate(58)"/><use href="#lacBird" transform="translate(1031 938) scale(.74) rotate(85)"/><use href="#lacBird" transform="translate(1012 1132) scale(.74) rotate(110)"/><use href="#lacBird" transform="translate(900 1301) scale(.74) rotate(142)"/><use href="#lacBird" transform="translate(720 1398) scale(.74) rotate(170)"/><use href="#lacBird" transform="translate(520 1416) scale(.74) rotate(194)"/><use href="#lacBird" transform="translate(333 1341) scale(.74) rotate(224)"/><use href="#lacBird" transform="translate(202 1191) scale(.74) rotate(252)"/><use href="#lacBird" transform="translate(165 997) scale(.74) rotate(278)"/><use href="#lacBird" transform="translate(230 809) scale(.74) rotate(306)"/><use href="#lacBird" transform="translate(375 661) scale(.74) rotate(334)"/>
</g>
<!-- circular scenes: people, deer and boats -->
<g opacity=".15">
  <use href="#person" transform="translate(600 725) scale(.86)"/><use href="#person" transform="translate(704 744) scale(.82) rotate(18)"/><use href="#deer" transform="translate(795 807) scale(.84) rotate(32)"/><use href="#boat" transform="translate(845 918) scale(.70) rotate(58)"/><use href="#person" transform="translate(844 1072) scale(.84) rotate(96)"/><use href="#deer" transform="translate(792 1204) scale(.84) rotate(130)"/><use href="#boat" transform="translate(684 1289) scale(.70) rotate(162)"/><use href="#person" transform="translate(542 1304) scale(.84) rotate(190)"/><use href="#deer" transform="translate(411 1260) scale(.84) rotate(220)"/><use href="#boat" transform="translate(326 1152) scale(.70) rotate(250)"/><use href="#person" transform="translate(307 1000) scale(.84) rotate(280)"/><use href="#deer" transform="translate(362 862) scale(.84) rotate(314)"/><use href="#boat" transform="translate(468 770) scale(.70) rotate(342)"/>
</g>
<!-- central Đông Sơn starburst -->
<g transform="translate(600 1035)" fill="#a9712b" opacity=".18">
  <path d="M0-176 23-66 67-163 65-55 126-126 77-37 163-67 91-18 176 0 91 18 163 67 77 37 126 126 65 55 67 163 23 66 0 176-23 66-67 163-65 55-126 126-77 37-163 67-91 18-176 0-91-18-163-67-77-37-126-126-65-55-67-163-23-66z"/>
  <circle r="47" fill="#f6e5c3" opacity=".76"/><circle r="31" fill="none" stroke="#a9712b" stroke-width="2" opacity=".76"/><circle r="13" fill="#a9712b" opacity=".20"/>
</g>
<g transform="translate(600 1035)" fill="none" stroke="#9e6725" stroke-width="1.7" opacity=".15">
  <path d="M-452-16h62v-24h-37v-24h62v48h62v24h-86v24h-63z"/><path d="M452-16h-62v-24h37v-24h-62v48h-62v24h86v24h63z"/><path d="M-16-452v62h-24v-37h-24v62h48v62h24v-86h24v-63z"/><path d="M-16 452v-62h-24v37h-24v-62h48v-62h24v86h24v63z"/>
</g>
<ellipse cx="600" cy="1035" rx="555" ry="555" fill="none" stroke="#b57b32" stroke-width="2" opacity=".10"/>
</svg>